<svg id="Capa_1" enable-background="new 0 0 512 512" height="50" viewBox="0 0 512 512" width="50" xmlns="http://www.w3.org/2000/svg"><path d="m305.5 435.5h89.5v69h-89.5z" fill="#8f989e"/><path d="m407.5 420.5h-10c-5.523 0-10 4.477-10 10v74h20c5.523 0 10-4.477 10-10v-64c0-5.523-4.477-10-10-10z" fill="#687177"/><path d="m395.5 7.5h-29c-5.523 0-10 4.477-10 10v30h49v-30c0-5.523-4.477-10-10-10z" fill="#b7b3ff"/><path d="m405.5 17.5v30h-30v-30c0-5.35-4.2-9.72-9.49-9.99.16-.01.32-.01.49-.01h29c5.52 0 10 4.48 10 10z" fill="#88f"/><path d="m285.5 395.5h-111l-40 79 96.5 14 94.5-14z" fill="#9cdbef"/><path d="m279.5 395.5h-97c-66.274 0-120-53.726-120-120v-15h337v15c0 66.274-53.726 120-120 120z" fill="#d2f1ff"/><path d="m399.5 270.5v5c0 66.27-53.73 120-120 120h-30c66.27 0 120-53.73 120-120v-5z" fill="#9cdbef"/><path d="m427.5 270.5h-143v-233h143c22.091 0 40 17.909 40 40v153c0 22.091-17.909 40-40 40z" fill="#9cdbef"/><path d="m467.5 77.5v153c0 22.09-17.91 40-40 40h-30c22.09 0 40-17.91 40-40v-153c0-22.09-17.91-40-40-40h30c22.09 0 40 17.91 40 40z" fill="#79c7e2"/><path d="m277 7.5c9.665 0 17.5 7.835 17.5 17.5v220.5h-35v-220.5c0-9.665 7.835-17.5 17.5-17.5z" fill="#9292ff"/><path d="m62 235.5h232.5v35h-232.5c-9.665 0-17.5-7.835-17.5-17.5 0-9.665 7.835-17.5 17.5-17.5z" fill="#b7b3ff"/><path d="m335.5 504.5h-211c-5.523 0-10-4.477-10-10v-10c0-5.523 4.477-10 10-10h211c5.523 0 10 4.477 10 10v10c0 5.523-4.477 10-10 10z" fill="#d2f1ff"/><path d="m345.5 484.5v10c0 5.52-4.48 10-10 10h-30c5.52 0 10-4.48 10-10v-10c0-5.52-4.48-10-10-10h30c5.52 0 10 4.48 10 10z" fill="#9cdbef"/><path d="m161.5 200.5v-33.5c0-22.92 18.58-41.5 41.5-41.5 12.979 0 23.5 10.521 23.5 23.5 0 12.979-10.521 23.5-23.5 23.5-11.107 0-21.66 4.854-28.889 13.287z" fill="#9cdbef"/><path d="m226.5 149c0 6.49-2.63 12.36-6.88 16.62-4.26 4.25-10.13 6.88-16.62 6.88-5.56 0-10.97 1.21-15.9 3.48s-9.38 5.59-12.99 9.81l-12.61 14.71v-26.22c3.68-1.17 7.55-1.78 11.5-1.78 6.49 0 12.36-2.63 16.62-6.88 4.25-4.26 6.88-10.13 6.88-16.62s-2.63-12.36-6.88-16.62c-1.18-1.18-2.48-2.23-3.89-3.13 5.26-2.41 11.11-3.75 17.27-3.75 6.49 0 12.36 2.63 16.62 6.88 4.25 4.26 6.88 10.13 6.88 16.62z" fill="#79c7e2"/><path d="m131.5 170.5v-33.5c0-22.92-18.58-41.5-41.5-41.5-12.979 0-23.5 10.521-23.5 23.5 0 12.979 10.521 23.5 23.5 23.5 11.107 0 21.66 4.854 28.889 13.287z" fill="#9cdbef"/><path d="m131.5 137v33.5l-12.61-14.71c-3.61-4.22-8.06-7.54-12.99-9.81-1.43-.66-2.9-1.23-4.4-1.7v-7.28c0-16.76-9.93-31.19-24.23-37.75 3.67-2.38 8.04-3.75 12.73-3.75 22.92 0 41.5 18.58 41.5 41.5z" fill="#79c7e2"/><path d="m325.5 474.5h-30l-40-79h30z" fill="#79c7e2"/><path d="m467.5 99c4.143 0 7.5-3.358 7.5-7.5v-14c0-26.191-21.309-47.5-47.5-47.5h-14.5v-12.5c0-9.649-7.851-17.5-17.5-17.5h-29c-9.649 0-17.5 7.851-17.5 17.5v12.5h-47v-5c0-13.785-11.215-25-25-25s-25 11.215-25 25v203h-190c-13.785 0-25 11.215-25 25 0 11.362 7.622 20.972 18.019 24.001.732 63.019 47.405 115.196 108.027 124.517l-33.155 65.482h-5.391c-9.649 0-17.5 7.851-17.5 17.5v10c0 9.649 7.851 17.5 17.5 17.5h283c9.649 0 17.5-7.851 17.5-17.5v-64c0-9.649-7.851-17.5-17.5-17.5h-10c-8.798 0-16.081 6.534-17.3 15h-69.837l-13.275-26.219c61.204-8.482 108.658-60.567 109.881-123.781h20.531c26.191 0 47.5-21.309 47.5-47.5v-104c0-4.142-3.357-7.5-7.5-7.5s-7.5 3.358-7.5 7.5v104c0 17.92-14.579 32.5-32.5 32.5h-125.5v-27.5-190.5h125.5c17.921 0 32.5 14.58 32.5 32.5v14c0 4.143 3.357 7.5 7.5 7.5zm-200.5-74c0-5.514 4.486-10 10-10s10 4.486 10 10v203h-20zm-215 228c0-5.514 4.486-10 10-10h225v20h-225c-5.514 0-10-4.486-10-10zm72.5 244c-1.379 0-2.5-1.122-2.5-2.5v-10c0-1.378 1.121-2.5 2.5-2.5h9.969c.008 0 .017.001.025.001.007 0 .014-.001.021-.001h190.969c.007 0 .014.001.021.001.009 0 .017-.001.025-.001h9.969c1.379 0 2.5 1.122 2.5 2.5v10c0 1.378-1.121 2.5-2.5 2.5zm270.5-66.5c0-1.378 1.121-2.5 2.5-2.5h10c1.379 0 2.5 1.122 2.5 2.5v64c0 1.378-1.121 2.5-2.5 2.5h-12.5zm-15 12.5v54h-27.2c.118-.819.2-1.649.2-2.5v-10c0-9.649-7.851-17.5-17.5-17.5h-5.391l-12.152-24zm11.968-165c-1.335 60.883-51.272 110-112.468 110h-42.5c-4.143 0-7.5 3.358-7.5 7.5s3.357 7.5 7.5 7.5h42.5c.462 0 .921-.013 1.382-.018l32.414 64.018h-166.592l32.428-64.045c1.119.029 2.242.045 3.368.045h19.5c4.143 0 7.5-3.358 7.5-7.5s-3.357-7.5-7.5-7.5h-19.5c-61.196 0-111.134-49.117-112.468-110zm-27.968-260.5c0-1.378 1.121-2.5 2.5-2.5h29c1.379 0 2.5 1.122 2.5 2.5v12.5h-34z"/><path d="m158.897 207.534c.85.314 1.729.466 2.601.466 2.148 0 4.243-.924 5.696-2.62l12.611-14.713c5.812-6.779 14.265-10.667 23.195-10.667 17.094 0 31-13.907 31-31s-13.906-31-31-31c-27.019 0-49 21.981-49 49v33.5c0 3.139 1.954 5.945 4.897 7.034zm10.103-40.534c0-18.748 15.252-34 34-34 8.822 0 16 7.178 16 16s-7.178 16-16 16c-13.019 0-25.358 5.543-34 15.239z"/><path d="m90 150c8.93 0 17.383 3.888 23.194 10.668l12.611 14.713c1.453 1.696 3.548 2.62 5.696 2.62.871 0 1.751-.152 2.601-.466 2.943-1.089 4.897-3.896 4.897-7.034v-33.501c0-27.019-21.981-49-49-49-17.094 0-31 13.907-31 31s13.907 31 31.001 31zm0-47c18.748 0 34 15.252 34 34v13.239c-8.642-9.696-20.981-15.239-34-15.239-8.822 0-16-7.178-16-16s7.178-16 16-16z"/></svg>